<svg xmlns="http://www.w3.org/2000/svg" viewBox="0 0 1440 320">
<defs>
    <linearGradient id="grad2" x1="0%" y1="0%" x2="0%" y2="100%">
      <stop offset="0%" style="stop-color:rgb(17,161,151);stop-opacity:1" />
      <stop offset="100%" style="stop-color:rgb(135,189,59);stop-opacity:1" />
    </linearGradient>
  </defs>
<!-- <path fill="url(#grad2)"  fill-opacity="1" d="M0,128L40,149.3C80,171,160,213,240,213.3C320,213,400,171,480,144C560,117,640,107,720,133.3C800,160,880,224,960,245.3C1040,267,1120,245,1200,229.3C1280,213,1360,203,1400,197.3L1440,192L1440,0L1400,0C1360,0,1280,0,1200,0C1120,0,1040,0,960,0C880,0,800,0,720,0C640,0,560,0,480,0C400,0,320,0,240,0C160,0,80,0,40,0L0,0Z"></path></svg> -->
<path fill="url(#grad2)" fill-opacity="1" d="M0,160L0,256L120,256L120,160L240,160L240,32L360,32L360,96L480,96L480,32L600,32L600,224L720,224L720,320L840,320L840,256L960,256L960,64L1080,64L1080,32L1200,32L1200,128L1320,128L1320,320L1440,320L1440,0L1320,0L1320,0L1200,0L1200,0L1080,0L1080,0L960,0L960,0L840,0L840,0L720,0L720,0L600,0L600,0L480,0L480,0L360,0L360,0L240,0L240,0L120,0L120,0L0,0L0,0Z"></path></svg>