<svg id="Layer_1" height="512" viewBox="0 0 512 512" width="512" xmlns="http://www.w3.org/2000/svg" data-name="Layer 1"><path fill="white" d="m192.415 198.226-69.533-69.95-16.822 16.979 69.324 70.153z"/><path d="m240.877 186.789-11.51-11.638-35.199 35.511 11.599 11.73z"/><path d="m372.926 216.73-73.865-74.699-22.442 22.756 73.865 74.699z"/><path d="m157.725 78.901-34.178-34.586-58.707 59.227 34.191 34.6z"/><path d="m217.039 173.384 17.052-17.204-69.337-70.166-17.254 17.415z"/><path d="m360.88 167.86c-1.994-1.673-3.936-3.441-5.8-5.329a84.926 84.926 0 0 1 -8.067-9.449l-11.475 11.618 14.241 14.4z"/><path d="m459.36 161.641-50.389-50.957 18.948-18.948a21.729 21.729 0 0 0 27.652-2.561 21.745 21.745 0 1 0 -34.387-4.843l-19.244 19.242-45.895-46.412a75.1 75.1 0 0 0 6.143 98.338 72.925 72.925 0 0 0 97.172 6.141z"/><path d="m426.187 350.495-69.324-70.152-17.031 17.182 69.533 69.949z"/><path d="m322.247 315.265 69.538 69.953 10.542-10.64-69.535-69.951z"/><path d="m209.999 180.486-69.537-69.953-10.542 10.639 69.535 69.952z"/><path d="m192.317 250.272a52.707 52.707 0 0 0 0 73.866 52.5 52.5 0 0 0 73.892.773l-73.846-74.68z"/><path d="m269.6 171.909-70.216 71.2 73.866 74.7 70.216-71.2zm-9.407 49.223-31.493 31.494a5 5 0 0 1 -7.07-7.072l31.49-31.494a5 5 0 0 1 7.07 7.072zm13.432-13.432a5 5 0 0 1 -7.07-7.072l4.452-4.451a5 5 0 0 1 7.07 7.072z"/><path d="m338.079 285.089-9.272-9.377-35.11 35.603 9.182 9.285z"/><path d="m315.208 322.367-17.052 17.203 69.337 70.167 17.254-17.415z"/><path d="m374.522 416.85 34.177 34.586 58.707-59.227-34.191-34.6z"/><path d="m134.86 355.666a5 5 0 0 0 7.071 0l8.608-8.609a5 5 0 1 0 -7.07-7.071l-8.609 8.614a5 5 0 0 0 0 7.066z"/><path d="m95.184 395.892a5 5 0 0 0 7.07 0l22.852-22.852a5 5 0 1 0 -7.07-7.071l-22.852 22.852a5 5 0 0 0 0 7.071z"/><path d="m58.948 425.056-12.356 12.356a5 5 0 1 0 7.07 7.072l12.357-12.357a5 5 0 1 0 -7.071-7.071z"/><path d="m77.966 406.039-2.18 2.179a5 5 0 1 0 7.07 7.072l2.18-2.179a5 5 0 0 0 -7.07-7.072z"/><path d="m127.932 309.128-29.869 29.872a5 5 0 0 0 7.071 7.071l29.866-29.871a5 5 0 1 0 -7.07-7.071z"/><path d="m81.239 356.369-7.984 7.984a5 5 0 1 0 7.07 7.072l7.985-7.984a5 5 0 1 0 -7.071-7.072z"/><path d="m49.594 400.086a4.984 4.984 0 0 0 3.535-1.464l9.978-9.979a5 5 0 1 0 -7.07-7.071l-9.978 9.979a5 5 0 0 0 3.535 8.535z"/><path d="m181.4 355.524a5 5 0 0 0 -7.071 0l-11.448 11.446a5 5 0 1 0 7.07 7.071l11.449-11.441a5 5 0 0 0 0-7.076z"/><path d="m130.258 412.214a4.984 4.984 0 0 0 3.535-1.464l16.923-16.924a5 5 0 0 0 -7.07-7.071l-16.923 16.923a5 5 0 0 0 3.535 8.536z"/><path d="m116.574 420.9a5 5 0 0 0 -7.07 0l-17.05 17.05a5 5 0 0 0 7.07 7.071l17.05-17.05a5 5 0 0 0 0-7.071z"/><path d="m192.449 383.8-20.259 20.257a5 5 0 1 0 7.071 7.071l20.259-20.259a5 5 0 1 0 -7.071-7.071z"/><path d="m155.366 421.43-12.516 12.518a5 5 0 0 0 7.07 7.071l12.517-12.519a5 5 0 0 0 -7.071-7.072z"/><path d="m125.631 451.166-7.985 7.984a5 5 0 0 0 7.071 7.071l7.984-7.984a5 5 0 1 0 -7.07-7.071z"/></svg>