<svg xmlns="http://www.w3.org/2000/svg" width="166" height="763.004" viewBox="0 0 166 763.004">
  <g id="Group_1" data-name="Group 1" transform="translate(2.5 0.004)">
    <line id="Line_1" data-name="Line 1" x1="1" y2="561" transform="translate(160)" fill="none" stroke="#85aeca" stroke-width="5"/>
    <line id="Line_2" data-name="Line 2" x1="45" y2="77" transform="translate(116 51)" fill="none" stroke="#85aeca" stroke-width="5"/>
    <path id="Path_2" data-name="Path 2" d="M0,0V480.474" transform="translate(116 128)" fill="none" stroke="#85aeca" stroke-width="5"/>
    <line id="Line_4" data-name="Line 4" x1="50" y2="74" transform="translate(66 407)" fill="none" stroke="#85aeca" stroke-width="5"/>
    <path id="Path_1" data-name="Path 1" d="M0,0V74.3" transform="translate(66 481)" fill="none" stroke="#85aeca" stroke-width="5"/>
    <line id="Line_6" data-name="Line 6" x1="50" y2="53" transform="translate(16 555)" fill="none" stroke="#85aeca" stroke-width="5"/>
    <line id="Line_7" data-name="Line 7" x2="22" y2="62" transform="translate(116 311)" fill="none" stroke="#85aeca" stroke-width="5"/>
    <line id="Line_8" data-name="Line 8" y2="101" transform="translate(138 373)" fill="none" stroke="#85aeca" stroke-width="5"/>
    <line id="Line_9" data-name="Line 9" x1="50" y2="53" transform="translate(66 608)" fill="none" stroke="#85aeca" stroke-width="5"/>
    <line id="Line_10" data-name="Line 10" y2="102" transform="translate(66 661)" fill="none" stroke="#85aeca" stroke-width="5"/>
    <line id="Line_11" data-name="Line 11" x1="75" y2="99" transform="translate(41 162)" fill="none" stroke="#85aeca" stroke-width="5"/>
    <line id="Line_13" data-name="Line 13" x2="25" y2="50" transform="translate(41 261)" fill="none" stroke="#85aeca" stroke-width="5"/>
    <line id="Line_14" data-name="Line 14" x1="41" y2="50" transform="translate(0 261)" fill="none" stroke="#85aeca" stroke-width="5"/>
    <line id="Line_15" data-name="Line 15" y2="105" transform="translate(0 311)" fill="none" stroke="#85aeca" stroke-width="5"/>
    <line id="Line_16" data-name="Line 16" x2="33" y2="21" transform="translate(0 416)" fill="none" stroke="#85aeca" stroke-width="5"/>
    <line id="Line_17" data-name="Line 17" y2="71" transform="translate(33 437)" fill="none" stroke="#85aeca" stroke-width="5"/>
    <line id="Line_18" data-name="Line 18" x1="33" y2="47" transform="translate(0 508)" fill="none" stroke="#85aeca" stroke-width="5"/>
    <line id="Line_19" data-name="Line 19" y2="57" transform="translate(66 311)" fill="none" stroke="#85aeca" stroke-width="5"/>
  </g>
</svg>
