<!-- <svg xmlns="http://www.w3.org/2000/svg" width="166" height="763.004" viewBox="0 0 166 763.004">
  <g id="Group_1" data-name="Group 1" transform="translate(-558 -177.496)">
    <line id="Line_1" data-name="Line 1" x2="1" y2="561" transform="translate(560.5 177.5)" fill="none" stroke="#85aeca" stroke-width="5"/>
    <line id="Line_2" data-name="Line 2" x2="45" y2="77" transform="translate(560.5 228.5)" fill="none" stroke="#85aeca" stroke-width="5"/>
    <path id="Path_2" data-name="Path 2" d="M0,0V480.474" transform="translate(605.5 305.5)" fill="none" stroke="#85aeca" stroke-width="5"/>
    <line id="Line_4" data-name="Line 4" x2="50" y2="74" transform="translate(605.5 584.5)" fill="none" stroke="#85aeca" stroke-width="5"/>
    <path id="Path_1" data-name="Path 1" d="M0,0V74.3" transform="translate(655.5 658.5)" fill="none" stroke="#85aeca" stroke-width="5"/>
    <line id="Line_6" data-name="Line 6" x2="50" y2="53" transform="translate(655.5 732.5)" fill="none" stroke="#85aeca" stroke-width="5"/>
    <line id="Line_7" data-name="Line 7" x1="22" y2="62" transform="translate(583.5 488.5)" fill="none" stroke="#85aeca" stroke-width="5"/>
    <line id="Line_8" data-name="Line 8" y2="101" transform="translate(583.5 550.5)" fill="none" stroke="#85aeca" stroke-width="5"/>
    <line id="Line_9" data-name="Line 9" x2="50" y2="53" transform="translate(605.5 785.5)" fill="none" stroke="#85aeca" stroke-width="5"/>
    <line id="Line_10" data-name="Line 10" y2="102" transform="translate(655.5 838.5)" fill="none" stroke="#85aeca" stroke-width="5"/>
    <line id="Line_11" data-name="Line 11" x2="75" y2="99" transform="translate(605.5 339.5)" fill="none" stroke="#85aeca" stroke-width="5"/>
    <line id="Line_13" data-name="Line 13" x1="25" y2="50" transform="translate(655.5 438.5)" fill="none" stroke="#85aeca" stroke-width="5"/>
    <line id="Line_14" data-name="Line 14" x2="41" y2="50" transform="translate(680.5 438.5)" fill="none" stroke="#85aeca" stroke-width="5"/>
    <line id="Line_15" data-name="Line 15" y2="105" transform="translate(721.5 488.5)" fill="none" stroke="#85aeca" stroke-width="5"/>
    <line id="Line_16" data-name="Line 16" x1="33" y2="21" transform="translate(688.5 593.5)" fill="none" stroke="#85aeca" stroke-width="5"/>
    <line id="Line_17" data-name="Line 17" y2="71" transform="translate(688.5 614.5)" fill="none" stroke="#85aeca" stroke-width="5"/>
    <line id="Line_18" data-name="Line 18" x2="33" y2="47" transform="translate(688.5 685.5)" fill="none" stroke="#85aeca" stroke-width="5"/>
    <line id="Line_19" data-name="Line 19" y2="57" transform="translate(655.5 488.5)" fill="none" stroke="#85aeca" stroke-width="5"/>
  </g>
</svg> -->

<svg xmlns="http://www.w3.org/2000/svg" width="162.5" height="763.001" viewBox="0 0 162.5 763.001">
  <g id="Group_2" data-name="Group 2" transform="translate(-559.75 -177.499)">
    <g id="Group_1" data-name="Group 1">
      <line id="Line_1" data-name="Line 1" x2="1" y2="561" transform="translate(560.5 177.5)" fill="none" stroke="#85aeca" stroke-width="1.5"/>
      <line id="Line_2" data-name="Line 2" x2="45" y2="77" transform="translate(560.5 228.5)" fill="none" stroke="#85aeca" stroke-width="1.5"/>
      <path id="Path_2" data-name="Path 2" d="M0,0V480.474" transform="translate(605.5 305.5)" fill="none" stroke="#85aeca" stroke-width="1.5"/>
      <line id="Line_4" data-name="Line 4" x2="50" y2="74" transform="translate(605.5 584.5)" fill="none" stroke="#85aeca" stroke-width="1.5"/>
      <path id="Path_1" data-name="Path 1" d="M0,0V74.3" transform="translate(655.5 658.5)" fill="none" stroke="#85aeca" stroke-width="1.5"/>
      <line id="Line_6" data-name="Line 6" x2="50" y2="53" transform="translate(655.5 732.5)" fill="none" stroke="#85aeca" stroke-width="1.5"/>
      <line id="Line_7" data-name="Line 7" x1="22" y2="62" transform="translate(583.5 488.5)" fill="none" stroke="#85aeca" stroke-width="1.5"/>
      <line id="Line_8" data-name="Line 8" y2="101" transform="translate(583.5 550.5)" fill="none" stroke="#85aeca" stroke-width="1.5"/>
      <line id="Line_9" data-name="Line 9" x2="50" y2="53" transform="translate(605.5 785.5)" fill="none" stroke="#85aeca" stroke-width="1.5"/>
      <line id="Line_10" data-name="Line 10" y2="102" transform="translate(655.5 838.5)" fill="none" stroke="#85aeca" stroke-width="1.5"/>
      <line id="Line_11" data-name="Line 11" x2="75" y2="99" transform="translate(605.5 339.5)" fill="none" stroke="#85aeca" stroke-width="1.5"/>
      <line id="Line_13" data-name="Line 13" x1="25" y2="50" transform="translate(655.5 438.5)" fill="none" stroke="#85aeca" stroke-width="1.5"/>
      <line id="Line_14" data-name="Line 14" x2="41" y2="50" transform="translate(680.5 438.5)" fill="none" stroke="#85aeca" stroke-width="1.5"/>
      <line id="Line_15" data-name="Line 15" y2="105" transform="translate(721.5 488.5)" fill="none" stroke="#85aeca" stroke-width="1.5"/>
      <line id="Line_16" data-name="Line 16" x1="33" y2="21" transform="translate(688.5 593.5)" fill="none" stroke="#85aeca" stroke-width="1.5"/>
      <line id="Line_17" data-name="Line 17" y2="71" transform="translate(688.5 614.5)" fill="none" stroke="#85aeca" stroke-width="1.5"/>
      <line id="Line_18" data-name="Line 18" x2="33" y2="47" transform="translate(688.5 685.5)" fill="none" stroke="#85aeca" stroke-width="1.5"/>
      <line id="Line_19" data-name="Line 19" y2="57" transform="translate(655.5 488.5)" fill="none" stroke="#85aeca" stroke-width="1.5"/>
    </g>
    <circle id="Ellipse_1" data-name="Ellipse 1" cx="2.5" cy="2.5" r="2.5" transform="translate(586 351)" fill="wheat" opacity="0.65"/>
    <circle id="Ellipse_2" data-name="Ellipse 2" cx="2.5" cy="2.5" r="2.5" transform="translate(586 376)" fill="wheat" opacity="0.65"/>
    <circle id="Ellipse_3" data-name="Ellipse 3" cx="2.5" cy="2.5" r="2.5" transform="translate(591 540)" fill="wheat" opacity="0.65"/>
    <circle id="Ellipse_4" data-name="Ellipse 4" cx="2.5" cy="2.5" r="2.5" transform="translate(586 426)" fill="wheat" opacity="0.65"/>
    <circle id="Ellipse_5" data-name="Ellipse 5" cx="2.5" cy="2.5" r="2.5" transform="translate(703 490)" fill="wheat" opacity="0.65"/>
    <circle id="Ellipse_6" data-name="Ellipse 6" cx="2.5" cy="2.5" r="2.5" transform="translate(703 514)" fill="wheat" opacity="0.65"/>
    <circle id="Ellipse_7" data-name="Ellipse 7" cx="2.5" cy="2.5" r="2.5" transform="translate(703 577)" fill="wheat" opacity="0.65"/>
    <circle id="Ellipse_8" data-name="Ellipse 8" cx="2.5" cy="2.5" r="2.5" transform="translate(631 846)" fill="wheat" opacity="0.65"/>
    <circle id="Ellipse_9" data-name="Ellipse 9" cx="2.5" cy="2.5" r="2.5" transform="translate(631 868)" fill="wheat" opacity="0.65"/>
    <circle id="Ellipse_12" data-name="Ellipse 12" cx="2.5" cy="2.5" r="2.5" transform="translate(703 540)" fill="wheat" opacity="0.65"/>
    <circle id="Ellipse_13" data-name="Ellipse 13" cx="2.5" cy="2.5" r="2.5" transform="translate(686 490)" fill="wheat" opacity="0.65"/>
    <circle id="Ellipse_14" data-name="Ellipse 14" cx="2.5" cy="2.5" r="2.5" transform="translate(686 514)" fill="wheat" opacity="0.65"/>
    <circle id="Ellipse_15" data-name="Ellipse 15" cx="2.5" cy="2.5" r="2.5" transform="translate(686 559)" fill="wheat" opacity="0.65"/>
    <circle id="Ellipse_16" data-name="Ellipse 16" cx="2.5" cy="2.5" r="2.5" transform="translate(658 758)" fill="wheat" opacity="0.65"/>
  </g>
</svg>
