<svg id="Capa_1" enable-background="new 0 0 512 512" height="512" viewBox="0 0 512 512" width="512" xmlns="http://www.w3.org/2000/svg"><g><path d="m256 90.072-20.016 165.928 20.016 165.928c91.493 0 165.928-74.435 165.928-165.928s-74.435-165.928-165.928-165.928z" fill="#ffb655"/><g fill="#ffde55"><path d="m90.072 256c0 91.493 74.435 165.928 165.928 165.928v-331.856c-91.493 0-165.928 74.435-165.928 165.928z"/><path d="m241 0h30v60.072h-30z"/><path d="m128.018 30.273h30v60.072h-30z" transform="matrix(.866 -.5 .5 .866 -10.994 79.589)"/><path d="m45.309 112.982h30v60.072h-30z" transform="matrix(.5 -.866 .866 .5 -93.703 123.738)"/><path d="m0 241h60.072v30h-60.072z"/><path d="m30.273 353.982h60.072v30h-60.072z" transform="matrix(.866 -.5 .5 .866 -176.413 79.59)"/><path d="m112.982 436.691h60.072v30h-60.072z" transform="matrix(.5 -.866 .866 .5 -319.666 349.7)"/><path d="m241 451.928h30v60.072h-30z"/><path d="m353.982 421.655h30v60.072h-30z" transform="matrix(.866 -.5 .5 .866 -176.411 245.007)"/><path d="m436.691 338.946h30v60.072h-30z" transform="matrix(.5 -.866 .866 .5 -93.704 575.663)"/><path d="m451.928 241h60.072v30h-60.072z"/><path d="m421.655 128.018h60.072v30h-60.072z" transform="matrix(.866 -.5 .5 .866 -10.994 245.008)"/><path d="m338.946 45.309h60.072v30h-60.072z" transform="matrix(.5 -.866 .866 .5 132.26 349.701)"/></g><path d="m240.989 306.478h30.023v30h-30.023z" fill="#fff5f5"/><path d="m256.001 270.144c13.683 0 26.565 5.347 36.275 15.057l21.213-21.214c-15.377-15.375-35.793-23.843-57.488-23.843h-.001l-10.008 15.856 10.008 14.144z" fill="#ebebf0"/><path d="m334.682 242.793 21.213-21.214c-26.722-26.72-62.198-41.435-99.894-41.435h-.001l-10.008 14.856 10.008 15.144h.001c29.683 0 57.626 11.595 78.681 32.649z" fill="#ebebf0"/><path d="m219.725 285.201c9.71-9.709 22.592-15.057 36.275-15.057v-30c-21.696 0-42.112 8.468-57.488 23.844z" fill="#fff5f5"/><path d="m156.105 221.582 21.214 21.213c21.054-21.055 48.997-32.651 78.681-32.651v-30c-37.697 0-73.174 14.717-99.895 41.438z" fill="#fff5f5"/></g></svg>